<?xml version="1.0" standalone="no"?>
<!DOCTYPE svg PUBLIC "-//W3C//DTD SVG 20010904//EN"
 "http://www.w3.org/TR/2001/REC-SVG-20010904/DTD/svg10.dtd">
<svg version="1.0" xmlns="http://www.w3.org/2000/svg"
 width="512.000000pt" height="512.000000pt" viewBox="0 0 512.000000 512.000000"
 preserveAspectRatio="xMidYMid meet">
<metadata>
Created by potrace 1.14, written by Peter Selinger 2001-2017
</metadata>
<g transform="translate(0.000000,512.000000) scale(0.100000,-0.100000)"
fill="#000000" stroke="none">
<path d="M1300 3666 c0 -3 -233 -681 -600 -1743 l-39 -113 212 0 212 0 68 210
67 210 337 -2 336 -3 70 -207 69 -208 209 0 c115 0 209 3 209 7 0 6 -533 1554
-600 1743 l-38 105 -256 3 c-141 1 -256 0 -256 -2z m378 -772 c63 -190 111
-348 109 -350 -2 -2 -107 -3 -234 -2 l-229 3 107 330 c59 182 110 338 112 348
3 9 9 17 14 17 5 0 59 -156 121 -346z"/>
<path d="M2680 2740 l0 -930 195 0 195 0 0 385 0 385 400 0 400 0 0 -385 0
-385 195 0 195 0 0 930 0 930 -195 0 -195 0 0 -385 0 -385 -308 0 c-170 0
-350 3 -400 6 l-92 7 0 378 0 379 -195 0 -195 0 0 -930z"/>
<path d="M4260 1380 l0 -110 -1785 0 -1785 0 0 -60 0 -60 1845 0 1845 0 0 170
0 170 -60 0 -60 0 0 -110z"/>
</g>
</svg>
